<?xml version="1.0" encoding="UTF-8" standalone="no"?>
<svg width="32px" height="32px" viewBox="0 0 32 32" version="1.1" xmlns="http://www.w3.org/2000/svg" xmlns:xlink="http://www.w3.org/1999/xlink" xmlns:sketch="http://www.bohemiancoding.com/sketch/ns">
    <!-- Generator: Sketch 3.0.3 (7891) - http://www.bohemiancoding.com/sketch -->
    <title>tram-tracker</title>
    <desc>Created with Sketch.</desc>
    <defs></defs>
    <g id="Page-1" stroke="none" stroke-width="1" fill="none" fill-rule="evenodd" sketch:type="MSPage">
        <g id="tram-tracker" sketch:type="MSArtboardGroup">
            <path d="M21,29 L22.0074602,29 C23.6601943,29 25,27.6640085 25,25.9931517 L25,9.00684834 C25,7.34621185 23.6470745,6 22.0074602,6 L9.99253976,6 C8.33980569,6 7,7.33599155 7,9.00684834 L7,25.9931517 C7,27.6537881 8.35292554,29 9.99253976,29 L11,29 L11,29 L11,30 L13,30 L13,29 L19,29 L19,30 L21,30 L21,29 Z" id="Rectangle-1" stroke="#000000" stroke-width="2" sketch:type="MSShapeGroup"></path>
            <circle id="Oval-1" stroke="#000000" sketch:type="MSShapeGroup" cx="12" cy="24" r="1"></circle>
            <circle id="Oval-2" stroke="#000000" sketch:type="MSShapeGroup" cx="20" cy="24" r="1"></circle>
            <path d="M12.5,2.5 L19.5,2.5" id="Line" stroke="#000000" stroke-linecap="square" sketch:type="MSShapeGroup"></path>
            <path d="M15.5,3.5 L14.5,6.5" id="Line" stroke="#000000" stroke-linecap="square" sketch:type="MSShapeGroup"></path>
            <path d="M16.5,3.5 L17.5,6.5" id="Line" stroke="#000000" stroke-linecap="square" sketch:type="MSShapeGroup"></path>
            <rect id="Rectangle-4" fill="#000000" sketch:type="MSShapeGroup" x="7" y="9" width="18" height="1"></rect>
            <rect id="Rectangle-5" fill="#000000" sketch:type="MSShapeGroup" x="7" y="20" width="18" height="1"></rect>
        </g>
    </g>
</svg>